<?xml version="1.0" standalone="no"?>
<!DOCTYPE svg PUBLIC "-//W3C//DTD SVG 20010904//EN"
 "http://www.w3.org/TR/2001/REC-SVG-20010904/DTD/svg10.dtd">
<svg version="1.0" xmlns="http://www.w3.org/2000/svg"
 width="97.000000pt" height="97.000000pt" viewBox="0 0 97.000000 97.000000"
 preserveAspectRatio="xMidYMid meet">
<metadata>
Created by potrace 1.11, written by Peter Selinger 2001-2013
</metadata>
<g transform="translate(0.000000,97.000000) scale(0.100000,-0.100000)"
fill="#000000" stroke="none">
<path d="M56 697 c-15 -23 -46 -102 -46 -118 0 -5 29 -9 64 -9 l65 0 10 -52
c6 -29 17 -98 26 -153 24 -151 19 -145 120 -145 47 0 85 2 85 5 0 3 -9 14 -20
25 -11 11 -20 28 -20 38 0 28 -70 385 -80 410 -9 20 -16 22 -100 22 -82 0 -91
-2 -104 -23z"/>
<path d="M346 697 c-15 -23 -46 -102 -46 -118 0 -5 29 -9 64 -9 74 0 63 22 96
-180 12 -69 23 -135 26 -148 4 -21 9 -22 94 -22 50 0 90 3 90 6 0 4 -7 12 -16
18 -11 8 -29 82 -59 234 -24 122 -47 227 -50 232 -3 6 -46 10 -95 10 -82 0
-91 -2 -104 -23z"/>
<path d="M642 708 c-10 -13 -52 -117 -52 -130 0 -5 29 -8 64 -8 44 0 65 -4 69
-13 3 -8 15 -76 26 -153 30 -195 23 -184 126 -184 86 0 97 4 70 24 -11 8 -29
80 -55 221 -22 116 -44 220 -50 233 -9 20 -16 22 -99 22 -59 0 -92 -4 -99 -12z"/>
</g>
</svg>
